<svg width="168" height="172" viewBox="0 0 168 172" fill="none" xmlns="http://www.w3.org/2000/svg">
<ellipse cx="84" cy="86" rx="84" ry="86" fill="#5A0EBA" fill-opacity="0.51"/>
<ellipse rx="72.3692" ry="73.1" transform="matrix(-1 0 0 1 85.2924 86.477)" fill="white"/>
<path d="M71.5024 68.562L67.0728 94.1558H63.979L57.4224 74.2749L53.9771 94.1558H50.813L55.2427 68.562H58.3188L64.9106 88.4956L68.3735 68.562H71.5024ZM78.6216 75.1362L75.3169 94.1558H72.2935L75.5981 75.1362H78.6216ZM76.3013 70.1265C76.3247 69.6108 76.4888 69.1655 76.7935 68.7905C77.0981 68.4038 77.5142 68.2046 78.0415 68.1929C78.5923 68.1812 79.02 68.3628 79.3247 68.7378C79.6294 69.1128 79.77 69.5581 79.7466 70.0737C79.7231 70.5659 79.5532 70.9995 79.2368 71.3745C78.9204 71.7378 78.5044 71.9253 77.9888 71.937C77.4497 71.9487 77.0278 71.7788 76.7231 71.4272C76.4302 71.064 76.2896 70.6304 76.3013 70.1265ZM89.9067 89.146C89.9888 88.5601 89.8833 88.0679 89.5903 87.6694C89.3091 87.2593 88.9341 86.9136 88.4653 86.6323C88.0083 86.3511 87.5571 86.0991 87.1118 85.8765C86.5024 85.5718 85.9106 85.2554 85.3364 84.9272C84.7739 84.5991 84.27 84.2241 83.8247 83.8022C83.3794 83.3804 83.0337 82.8882 82.7876 82.3257C82.5415 81.7632 82.4419 81.0952 82.4888 80.3218C82.5356 79.478 82.7407 78.7104 83.104 78.019C83.4673 77.3276 83.9478 76.7417 84.5454 76.2612C85.1431 75.769 85.8169 75.394 86.5669 75.1362C87.3169 74.8784 88.1021 74.7612 88.9224 74.7847C90.0591 74.8081 91.0317 75.0718 91.8403 75.5757C92.6606 76.0679 93.2759 76.7476 93.686 77.6147C94.1079 78.4702 94.2954 79.4546 94.2485 80.5679L91.2427 80.5503C91.2661 80.0112 91.1899 79.5132 91.0142 79.0562C90.8501 78.5874 90.5806 78.2124 90.2056 77.9312C89.8306 77.6382 89.3442 77.4858 88.7466 77.4741C88.1841 77.4741 87.6685 77.5854 87.1997 77.8081C86.731 78.0308 86.3442 78.3472 86.0396 78.7573C85.7466 79.1675 85.5591 79.6538 85.4771 80.2163C85.4185 80.6265 85.4536 80.9839 85.5825 81.2886C85.7231 81.5815 85.9224 81.8394 86.1802 82.062C86.438 82.2847 86.7251 82.4839 87.0415 82.6597C87.3696 82.8237 87.6919 82.9819 88.0083 83.1343C88.8521 83.5444 89.6606 83.9897 90.4341 84.4702C91.2075 84.9507 91.8286 85.5425 92.2974 86.2456C92.7778 86.937 92.9888 87.8218 92.9302 88.8999C92.8716 89.8022 92.6548 90.605 92.2798 91.3081C91.9048 92.0112 91.4067 92.603 90.7856 93.0835C90.1763 93.564 89.479 93.9272 88.6938 94.1733C87.9204 94.4194 87.1001 94.5308 86.2329 94.5073C85.061 94.4839 84.0298 94.2144 83.1392 93.6987C82.2603 93.1831 81.5806 92.4741 81.1001 91.5718C80.6313 90.6694 80.4204 89.6265 80.4673 88.4429L83.5259 88.4604C83.5024 89.105 83.5845 89.6792 83.772 90.1831C83.9595 90.687 84.2642 91.0854 84.686 91.3784C85.1196 91.6597 85.6821 91.8062 86.3735 91.8179C86.9478 91.8179 87.4868 91.7241 87.9907 91.5366C88.4946 91.3374 88.9165 91.0444 89.2563 90.6577C89.6079 90.2593 89.8247 89.7554 89.9067 89.146ZM103.723 67.1558L99.0298 94.1558H95.9888L100.682 67.1558H103.723ZM100.19 83.9956L99.0825 83.9429C99.2114 82.9468 99.4341 81.9097 99.7505 80.8315C100.079 79.7417 100.53 78.7339 101.104 77.8081C101.678 76.8706 102.399 76.1206 103.266 75.5581C104.145 74.9956 105.2 74.7378 106.43 74.7847C107.379 74.8081 108.141 75.0308 108.715 75.4526C109.301 75.8745 109.729 76.4253 109.999 77.105C110.28 77.7729 110.45 78.5112 110.508 79.3198C110.567 80.1167 110.555 80.9077 110.473 81.6929L108.399 94.1558H105.358L107.45 81.6401C107.508 81.0308 107.514 80.4155 107.467 79.7944C107.432 79.1616 107.256 78.6284 106.94 78.1948C106.624 77.7495 106.079 77.5151 105.305 77.4917C104.497 77.4683 103.788 77.6675 103.178 78.0894C102.581 78.5112 102.077 79.062 101.667 79.7417C101.256 80.4097 100.928 81.1245 100.682 81.8862C100.448 82.6362 100.284 83.3394 100.19 83.9956ZM122.514 90.9038L124.184 80.5503C124.243 79.9409 124.208 79.4077 124.079 78.9507C123.961 78.4819 123.715 78.1128 123.34 77.8433C122.977 77.5737 122.461 77.439 121.793 77.439C121.184 77.4272 120.639 77.5503 120.159 77.8081C119.678 78.0542 119.28 78.3999 118.963 78.8452C118.659 79.2905 118.448 79.8062 118.331 80.3921L115.325 80.4097C115.407 79.5542 115.647 78.7808 116.045 78.0894C116.456 77.3862 116.977 76.7886 117.61 76.2964C118.243 75.7925 118.946 75.4116 119.719 75.1538C120.493 74.8843 121.295 74.7554 122.127 74.7671C123.323 74.7788 124.319 75.0308 125.116 75.5229C125.913 76.0034 126.487 76.6831 126.838 77.562C127.202 78.4292 127.325 79.4487 127.208 80.6206L125.661 90.0073C125.555 90.6753 125.514 91.3198 125.538 91.9409C125.561 92.562 125.59 93.2007 125.625 93.8569L125.59 94.1558L122.549 94.1733C122.432 93.6343 122.379 93.0894 122.391 92.5386C122.403 91.9878 122.444 91.4429 122.514 90.9038ZM124.413 82.6245L124.043 84.9097L122.11 84.8921C121.489 84.8921 120.868 84.9624 120.247 85.103C119.637 85.2437 119.069 85.4663 118.542 85.771C118.026 86.064 117.592 86.4565 117.241 86.9487C116.901 87.4292 116.69 88.021 116.608 88.7241C116.538 89.2983 116.555 89.814 116.661 90.271C116.778 90.7163 117.006 91.0737 117.346 91.3433C117.698 91.6011 118.19 91.73 118.823 91.73C119.479 91.73 120.112 91.5835 120.721 91.2905C121.331 90.9976 121.852 90.5991 122.286 90.0952C122.731 89.5913 123.024 89.0171 123.165 88.3726L123.639 89.8491C123.499 90.4585 123.258 91.0503 122.918 91.6245C122.59 92.187 122.186 92.6909 121.706 93.1362C121.225 93.5698 120.686 93.9097 120.088 94.1558C119.502 94.4136 118.875 94.5425 118.208 94.5425C117.141 94.5425 116.245 94.3022 115.518 93.8218C114.792 93.3413 114.252 92.6968 113.901 91.8882C113.549 91.0679 113.409 90.1421 113.479 89.1108C113.538 88.0093 113.801 87.0483 114.27 86.228C114.75 85.4077 115.372 84.7339 116.133 84.2065C116.895 83.6675 117.745 83.269 118.682 83.0112C119.631 82.7417 120.616 82.6069 121.635 82.6069L124.413 82.6245Z" fill="black"/>
</svg>
